<svg width="16" height="16" viewBox="0 0 16 16" fill="none" xmlns="http://www.w3.org/2000/svg">
<path fill-rule="evenodd" clip-rule="evenodd" d="M1.7395 9.73438C1.42212 9.41699 1.42212 8.89014 1.7395 8.57275L8.73462 1.57764C8.77905 1.5332 8.85522 1.50146 8.9187 1.50146H13.6858C14.1365 1.50146 14.4983 1.86328 14.4983 2.31396V7.08105C14.4983 7.14453 14.4666 7.2207 14.4221 7.26514L7.427 14.2603C7.10962 14.5776 6.58276 14.5776 6.26538 14.2603L1.7395 9.73438ZM10.4358 4.34521C10.4358 5.02441 10.9753 5.56396 11.6545 5.56396C12.3337 5.56396 12.8733 5.02441 12.8733 4.34521C12.8733 3.66602 12.3337 3.12646 11.6545 3.12646C10.9753 3.12646 10.4358 3.66602 10.4358 4.34521Z" fill="#B7B09C"/>
</svg>
