<svg width="16" height="16" viewBox="0 0 16 16" fill="none" xmlns="http://www.w3.org/2000/svg">
<path fill-rule="evenodd" clip-rule="evenodd" d="M13.5417 15C13.9306 15 14.2708 14.8542 14.5625 14.5625C14.8542 14.2708 15 13.9306 15 13.5417V3.625C15 3.23611 14.8542 2.89583 14.5625 2.60417C14.2708 2.3125 13.9306 2.16667 13.5417 2.16667H12.6667V1H10.9167V2.16667H5.08333V1H3.33333V2.16667H2.45833C2.06944 2.16667 1.72917 2.3125 1.4375 2.60417C1.14583 2.89583 1 3.23611 1 3.625V13.5417C1 13.9306 1.14583 14.2708 1.4375 14.5625C1.72917 14.8542 2.06944 15 2.45833 15H13.5417ZM13.5417 13.5417H2.45833V5.8125H13.5417V13.5417Z" fill="#B7B09C"/>
</svg>
