<svg width="16" height="16" viewBox="0 0 16 16" fill="none" xmlns="http://www.w3.org/2000/svg">
<path d="M12.5944 4.48447C12.5446 4.2977 12.4434 4.09869 12.3685 3.92445C11.4727 1.77156 9.51533 1 7.93486 1C5.8191 1 3.48884 2.41871 3.17773 5.34299V5.94044C3.17773 5.96537 3.18633 6.18935 3.19853 6.30138C3.37293 7.69503 4.47262 9.17616 5.29391 10.5698C6.1775 12.063 7.09436 13.5318 8.00272 15C8.56284 14.0419 9.12093 13.0711 9.66828 12.1378C9.81746 11.8639 9.99062 11.5902 10.14 11.3287C10.2395 11.1547 10.4297 10.9806 10.5165 10.8186C11.4001 9.20093 12.8223 7.57075 12.8223 5.96534V5.30582C12.8223 5.13178 12.6066 4.522 12.5944 4.48447ZM7.97359 7.48365C7.35167 7.48365 6.67092 7.17267 6.33491 6.31385C6.28485 6.17714 6.28889 5.90317 6.28889 5.87808V5.4923C6.28889 4.39746 7.21851 3.89958 8.02723 3.89958C9.02286 3.89958 9.79288 4.69614 9.79288 5.69176C9.79288 6.68736 8.96922 7.48365 7.97359 7.48365Z" fill="#B7B09C"/>
</svg>
