<svg width="16" height="16" viewBox="0 0 16 16" fill="none" xmlns="http://www.w3.org/2000/svg">
<path d="M10.506 11.3599L8 9.7499L5.494 11.3599L6.25 8.4759L3.947 6.5999L6.922 6.4179L8 3.6599L9.078 6.4179L12.053 6.5999L9.75 8.4759M13.6 7.9999C13.6 7.2229 14.23 6.5999 15 6.5999V3.7999C15 3.0229 14.37 2.3999 13.6 2.3999H2.4C2.0287 2.3999 1.6726 2.5474 1.41005 2.80995C1.1475 3.0725 1 3.4286 1 3.7999V6.5999C1.777 6.5999 2.4 7.2299 2.4 7.9999C2.4 8.3712 2.2525 8.7273 1.98995 8.98985C1.7274 9.2524 1.3713 9.3999 1 9.3999V12.1999C1 12.5712 1.1475 12.9273 1.41005 13.1899C1.6726 13.4524 2.0287 13.5999 2.4 13.5999H13.6C13.9713 13.5999 14.3274 13.4524 14.5899 13.1899C14.8525 12.9273 15 12.5712 15 12.1999V9.3999C14.6287 9.3999 14.2726 9.2524 14.0101 8.98985C13.7475 8.7273 13.6 8.3712 13.6 7.9999Z" fill="#B7B09C"/>
</svg>
